<svg width="46" height="30" viewBox="0 0 46 30" fill="none" xmlns="http://www.w3.org/2000/svg">
<path d="M31 25.8807C34.0337 25.8807 36.6055 24.8177 38.7155 22.6917C40.8255 20.5653 41.8805 17.994 41.8805 14.9777C41.8805 11.961 40.8255 9.39717 38.7155 7.28617C36.6055 5.17517 34.0337 4.11967 31 4.11967C30.0453 4.11967 29.1173 4.24017 28.216 4.48117C27.3143 4.72217 26.4745 5.06651 25.6965 5.51417C26.8062 6.78884 27.684 8.229 28.33 9.83467C28.976 11.4403 29.299 13.163 29.299 15.0027C29.299 16.8423 28.976 18.5642 28.33 20.1682C27.684 21.7722 26.8062 23.2115 25.6965 24.4862C26.4745 24.9338 27.3143 25.2782 28.216 25.5192C29.1173 25.7602 30.0453 25.8807 31 25.8807ZM23 22.3467C23.892 21.399 24.5952 20.2882 25.1095 19.0142C25.6235 17.7405 25.8805 16.3983 25.8805 14.9877C25.8805 13.577 25.6235 12.239 25.1095 10.9737C24.5952 9.708 23.892 8.60134 23 7.65367C22.108 8.60134 21.4048 9.71217 20.8905 10.9862C20.3765 12.2598 20.1195 13.602 20.1195 15.0127C20.1195 16.4233 20.3765 17.7613 20.8905 19.0267C21.4048 20.2923 22.108 21.399 23 22.3467ZM15 25.8807C15.9547 25.8807 16.8827 25.7603 17.784 25.5197C18.6857 25.2787 19.5293 24.9342 20.315 24.4862C19.1977 23.2115 18.316 21.7713 17.67 20.1657C17.024 18.56 16.701 16.8373 16.701 14.9977C16.701 13.158 17.024 11.4362 17.67 9.83217C18.316 8.22817 19.1977 6.78884 20.315 5.51417C19.5293 5.06617 18.6857 4.72167 17.784 4.48067C16.8827 4.24 15.9547 4.11967 15 4.11967C11.9897 4.11967 9.42366 5.1745 7.30199 7.28417C5.18032 9.39384 4.11949 11.9568 4.11949 14.9732C4.11949 17.9898 5.18032 20.5618 7.30199 22.6892C9.42366 24.8168 11.9897 25.8807 15 25.8807ZM15 29.2992C11.022 29.2992 7.64432 27.9103 4.86699 25.1327C2.08966 22.355 0.700989 18.9768 0.700989 14.9982C0.700989 11.0198 2.08966 7.64251 4.86699 4.86617C7.64432 2.0895 11.022 0.701172 15 0.701172C16.5 0.701172 17.9237 0.914003 19.271 1.33967C20.618 1.765 21.861 2.36967 23 3.15367C24.139 2.36967 25.382 1.765 26.729 1.33967C28.0763 0.914003 29.5 0.701172 31 0.701172C34.978 0.701172 38.3557 2.09 41.133 4.86767C43.9103 7.64534 45.299 11.0235 45.299 15.0022C45.299 18.9805 43.9103 22.3578 41.133 25.1342C38.3557 27.9108 34.978 29.2992 31 29.2992C29.5 29.2992 28.0763 29.0863 26.729 28.6607C25.382 28.2353 24.139 27.6307 23 26.8467C21.861 27.6307 20.618 28.2353 19.271 28.6607C17.9237 29.0863 16.5 29.2992 15 29.2992Z" fill="#090503"/>
</svg>
