<svg width="662" height="248" viewBox="0 0 662 248" fill="none" xmlns="http://www.w3.org/2000/svg">
<g clip-path="url(#clip0_40_6095)">
<path d="M290.123 65.1258L214.168 108.017C211.457 109.548 211.457 113.452 214.168 114.983L290.123 157.874C291.358 158.572 292.87 158.563 294.097 157.851L368.035 114.96C370.693 113.419 370.693 109.581 368.035 108.04L294.097 65.1488C292.87 64.4371 291.358 64.4283 290.123 65.1258Z" fill="#D9D9D9"/>
<g filter="url(#filter0_d_40_6095)">
<path d="M290.123 37.1258L214.168 80.017C211.457 81.5478 211.457 85.4522 214.168 86.983L290.123 129.874C291.358 130.572 292.87 130.563 294.097 129.851L368.035 86.96C370.693 85.4186 370.693 81.5814 368.035 80.04L294.097 37.1488C292.87 36.4371 291.358 36.4283 290.123 37.1258Z" fill="white"/>
</g>
<g filter="url(#filter1_d_40_6095)">
<path d="M290.123 10.1258L214.168 53.017C211.457 54.5478 211.457 58.4522 214.168 59.983L290.123 102.874C291.358 103.572 292.87 103.563 294.097 102.851L368.035 59.96C370.693 58.4186 370.693 54.5814 368.035 53.04L294.097 10.1488C292.87 9.4371 291.358 9.42833 290.123 10.1258Z" fill="#B6D2E8"/>
</g>
</g>
<defs>
<filter id="filter0_d_40_6095" x="192.135" y="16.6089" width="205.893" height="141.782" filterUnits="userSpaceOnUse" color-interpolation-filters="sRGB">
<feFlood flood-opacity="0" result="BackgroundImageFix"/>
<feColorMatrix in="SourceAlpha" type="matrix" values="0 0 0 0 0 0 0 0 0 0 0 0 0 0 0 0 0 0 127 0" result="hardAlpha"/>
<feOffset dx="4" dy="4"/>
<feGaussianBlur stdDeviation="12"/>
<feComposite in2="hardAlpha" operator="out"/>
<feColorMatrix type="matrix" values="0 0 0 0 1 0 0 0 0 1 0 0 0 0 1 0 0 0 0.8 0"/>
<feBlend mode="normal" in2="BackgroundImageFix" result="effect1_dropShadow_40_6095"/>
<feBlend mode="normal" in="SourceGraphic" in2="effect1_dropShadow_40_6095" result="shape"/>
</filter>
<filter id="filter1_d_40_6095" x="191.135" y="-11.3911" width="207.893" height="143.782" filterUnits="userSpaceOnUse" color-interpolation-filters="sRGB">
<feFlood flood-opacity="0" result="BackgroundImageFix"/>
<feColorMatrix in="SourceAlpha" type="matrix" values="0 0 0 0 0 0 0 0 0 0 0 0 0 0 0 0 0 0 127 0" result="hardAlpha"/>
<feOffset dx="4" dy="4"/>
<feGaussianBlur stdDeviation="12.5"/>
<feComposite in2="hardAlpha" operator="out"/>
<feColorMatrix type="matrix" values="0 0 0 0 0.713726 0 0 0 0 0.823529 0 0 0 0 0.909804 0 0 0 0.8 0"/>
<feBlend mode="normal" in2="BackgroundImageFix" result="effect1_dropShadow_40_6095"/>
<feBlend mode="normal" in="SourceGraphic" in2="effect1_dropShadow_40_6095" result="shape"/>
</filter>
<clipPath id="clip0_40_6095">
<rect width="662" height="248" fill="white"/>
</clipPath>
</defs>
</svg>
