<svg width="410" height="208" viewBox="0 0 410 208" fill="none" xmlns="http://www.w3.org/2000/svg">
<g clip-path="url(#clip0_40_6041)">
<path d="M111 53H128.5" stroke="#D9D9D9" stroke-width="3"/>
<path d="M199 116H216.5" stroke="#D9D9D9" stroke-width="3"/>
<path d="M171 53H188.5" stroke="#D9D9D9" stroke-width="3"/>
<path d="M233 53H250.5" stroke="#B6D2E8" stroke-width="3"/>
<path d="M134 116H151.5" stroke="#B6D2E8" stroke-width="3"/>
<g filter="url(#filter0_d_40_6041)">
<rect x="53" y="26" width="56.3475" height="54" rx="8" fill="white"/>
<path d="M91.6131 47.5697C91.5367 47.3313 91.3908 47.1212 91.1942 46.9662C90.9977 46.8112 90.7593 46.7184 90.5096 46.6997L87.0465 46.426L85.7143 43.2703C85.617 43.0418 85.4547 42.847 85.2475 42.71C85.0403 42.573 84.7974 42.5 84.549 42.5C84.3006 42.5 84.0577 42.573 83.8505 42.71C83.6433 42.847 83.481 43.0418 83.3837 43.2703L82.0515 46.426L78.5884 46.6997C78.3397 46.718 78.1021 46.81 77.9059 46.9639C77.7097 47.1178 77.5638 47.3266 77.4867 47.5638C77.4097 47.801 77.405 48.0557 77.4733 48.2955C77.5416 48.5353 77.6798 48.7494 77.8703 48.9103L80.5009 51.1303L79.6984 54.4482C79.64 54.6884 79.6543 54.9406 79.7394 55.1728C79.8245 55.405 79.9766 55.6066 80.1765 55.7522C80.3782 55.9009 80.6195 55.9864 80.8698 55.9979C81.1201 56.0094 81.3682 55.9465 81.5828 55.8169L84.549 54.031L87.5162 55.8178C87.7308 55.947 87.9789 56.0098 88.2291 55.9983C88.4793 55.9868 88.7206 55.9015 88.9224 55.7532C89.1219 55.6073 89.2737 55.4055 89.3587 55.1734C89.4436 54.9413 89.4578 54.6893 89.3996 54.4491L88.5971 51.1313L91.2278 48.9113C91.4183 48.7515 91.5567 48.5384 91.6253 48.2994C91.694 48.0604 91.6897 47.8063 91.6131 47.5697ZM87.2753 50.281C87.1688 50.3709 87.0895 50.4887 87.0463 50.6212C87.0031 50.7537 86.9977 50.8956 87.0306 51.031L87.8068 54.2382L84.9362 52.5122C84.8194 52.442 84.6857 52.4048 84.5495 52.4048C84.4132 52.4048 84.2795 52.442 84.1628 52.5122L81.2921 54.24L82.0684 51.031C82.1012 50.8955 82.0956 50.7535 82.0522 50.6211C82.0088 50.4886 81.9293 50.3708 81.8228 50.281L79.299 48.1491L82.629 47.8857C82.7661 47.8748 82.8975 47.8264 83.0089 47.7459C83.1204 47.6654 83.2075 47.5558 83.2609 47.4291L84.549 44.3663L85.8418 47.4291C85.8952 47.5558 85.9823 47.6654 86.0938 47.7459C86.2052 47.8264 86.3366 47.8748 86.4737 47.8857L89.8046 48.1491L87.2753 50.281ZM77.4315 52.5478L71.9546 58.0303C71.8139 58.1711 71.623 58.2501 71.424 58.2501C71.225 58.2501 71.0341 58.1711 70.8934 58.0303C70.7526 57.8896 70.6736 57.6987 70.6736 57.4997C70.6736 57.3007 70.7526 57.1098 70.8934 56.9691L76.3731 51.4894C76.5138 51.3487 76.7047 51.2696 76.9037 51.2696C77.1027 51.2696 77.2936 51.3487 77.4343 51.4894C77.575 51.6301 77.6541 51.821 77.6541 52.02C77.6541 52.2191 77.575 52.4099 77.4343 52.5507L77.4315 52.5478ZM78.4449 57.2232C78.5855 57.3638 78.6644 57.5545 78.6644 57.7533C78.6644 57.9521 78.5855 58.1428 78.4449 58.2835L73.4546 63.2803C73.3849 63.35 73.3022 63.4053 73.2112 63.443C73.1201 63.4807 73.0225 63.5001 72.924 63.5001C72.8255 63.5001 72.7279 63.4807 72.6368 63.443C72.5458 63.4053 72.4631 63.35 72.3934 63.2803C72.3237 63.2107 72.2684 63.1279 72.2307 63.0369C72.193 62.9459 72.1736 62.8483 72.1736 62.7497C72.1736 62.6512 72.193 62.5536 72.2307 62.4626C72.2684 62.3715 72.3237 62.2888 72.3934 62.2191L77.3874 57.226C77.5281 57.0854 77.7188 57.0065 77.9176 57.0065C78.1164 57.0065 78.3071 57.0854 78.4478 57.226L78.4449 57.2232ZM85.2887 57.1294C85.3584 57.1991 85.4137 57.2818 85.4515 57.3728C85.4892 57.4639 85.5087 57.5615 85.5087 57.66C85.5087 57.7586 85.4892 57.8562 85.4515 57.9472C85.4137 58.0383 85.3584 58.121 85.2887 58.1907L80.1999 63.2794C80.0592 63.4201 79.8683 63.4992 79.6693 63.4992C79.4703 63.4992 79.2794 63.4201 79.1387 63.2794C78.998 63.1387 78.9189 62.9478 78.9189 62.7488C78.9189 62.5498 78.998 62.3589 79.1387 62.2182L84.2284 57.1294C84.2982 57.0592 84.3812 57.0035 84.4726 56.9655C84.564 56.9275 84.6621 56.9079 84.7611 56.908C84.8601 56.9081 84.9581 56.9278 85.0495 56.966C85.1408 57.0041 85.2237 57.06 85.2934 57.1303L85.2887 57.1294Z" fill="#0F120A"/>
</g>
<g filter="url(#filter1_d_40_6041)">
<rect x="184" y="26" width="56.9786" height="54" rx="8" fill="#B6D2E8"/>
<path d="M222.236 50.3774C222.236 50.5764 222.157 50.7671 222.016 50.9078C221.876 51.0484 221.685 51.1274 221.486 51.1274H219.986V52.6274C219.986 52.8264 219.907 53.0171 219.766 53.1578C219.626 53.2984 219.435 53.3774 219.236 53.3774C219.037 53.3774 218.846 53.2984 218.706 53.1578C218.565 53.0171 218.486 52.8264 218.486 52.6274V51.1274H216.986C216.787 51.1274 216.596 51.0484 216.456 50.9078C216.315 50.7671 216.236 50.5764 216.236 50.3774C216.236 50.1785 216.315 49.9878 216.456 49.8471C216.596 49.7065 216.787 49.6274 216.986 49.6274H218.486V48.1274C218.486 47.9285 218.565 47.7378 218.706 47.5971C218.846 47.4565 219.037 47.3774 219.236 47.3774C219.435 47.3774 219.626 47.4565 219.766 47.5971C219.907 47.7378 219.986 47.9285 219.986 48.1274V49.6274H221.486C221.685 49.6274 221.876 49.7065 222.016 49.8471C222.157 49.9878 222.236 50.1785 222.236 50.3774ZM213.236 46.6274H213.986V47.3774C213.986 47.5764 214.065 47.7671 214.206 47.9078C214.346 48.0484 214.537 48.1274 214.736 48.1274C214.935 48.1274 215.126 48.0484 215.266 47.9078C215.407 47.7671 215.486 47.5764 215.486 47.3774V46.6274H216.236C216.435 46.6274 216.626 46.5484 216.766 46.4078C216.907 46.2671 216.986 46.0764 216.986 45.8774C216.986 45.6785 216.907 45.4878 216.766 45.3471C216.626 45.2065 216.435 45.1274 216.236 45.1274H215.486V44.3774C215.486 44.1785 215.407 43.9878 215.266 43.8471C215.126 43.7065 214.935 43.6274 214.736 43.6274C214.537 43.6274 214.346 43.7065 214.206 43.8471C214.065 43.9878 213.986 44.1785 213.986 44.3774V45.1274H213.236C213.037 45.1274 212.846 45.2065 212.706 45.3471C212.565 45.4878 212.486 45.6785 212.486 45.8774C212.486 46.0764 212.565 46.2671 212.706 46.4078C212.846 46.5484 213.037 46.6274 213.236 46.6274ZM220.058 55.7212C220.146 55.8228 220.204 55.946 220.228 56.0779C220.251 56.2098 220.239 56.3456 220.192 56.4712C219.672 57.8905 218.802 59.1558 217.664 60.1504C216.526 61.145 215.155 61.8368 213.679 62.1621C212.202 62.4873 210.668 62.4354 209.217 62.0112C207.766 61.587 206.445 60.8042 205.377 59.735C204.308 58.6657 203.526 57.3446 203.103 55.8934C202.679 54.4422 202.628 52.9077 202.954 51.4316C203.28 49.9555 203.973 48.5853 204.968 47.4475C205.964 46.3096 207.229 45.4408 208.649 44.9212C208.774 44.8754 208.909 44.8637 209.04 44.8873C209.171 44.9109 209.293 44.9689 209.394 45.0553C209.495 45.1418 209.572 45.2536 209.615 45.3793C209.659 45.505 209.668 45.64 209.643 45.7706C209.38 47.1008 209.449 48.4754 209.843 49.7727C210.238 51.0701 210.946 52.2503 211.904 53.2092C212.863 54.168 214.043 54.8759 215.341 55.2704C216.638 55.6648 218.013 55.7337 219.343 55.4709C219.474 55.4453 219.609 55.455 219.735 55.499C219.86 55.543 219.972 55.6197 220.058 55.7212ZM218.241 57.1162C218.073 57.1246 217.904 57.1293 217.736 57.1293C215.151 57.1266 212.672 56.0982 210.844 54.2699C209.016 52.4416 207.988 49.9628 207.986 47.3774C207.986 47.2096 207.986 47.0409 207.999 46.8731C207.001 47.4473 206.149 48.2436 205.508 49.2001C204.868 50.1567 204.456 51.248 204.305 52.3893C204.154 53.5307 204.267 54.6915 204.637 55.7819C205.007 56.8722 205.623 57.8628 206.437 58.6769C207.251 59.491 208.241 60.1068 209.332 60.4765C210.422 60.8461 211.583 60.9598 212.724 60.8088C213.866 60.6577 214.957 60.2458 215.913 59.6052C216.87 58.9645 217.666 58.1122 218.241 57.1143V57.1162Z" fill="#0F120A"/>
</g>
<g filter="url(#filter2_d_40_6041)">
<rect x="251" y="26" width="52.3308" height="54" rx="8" fill="white"/>
<path d="M277.501 42.9545C277.397 42.9024 277.282 42.8752 277.165 42.8752C277.049 42.8752 276.934 42.9024 276.83 42.9545C276.445 43.1467 267.415 47.7348 267.415 54.1248C267.415 54.9606 267.614 55.7843 267.996 56.5276C268.379 57.2708 268.933 57.9121 269.613 58.3981C270.292 58.8841 271.079 59.2007 271.906 59.3217C272.732 59.4427 273.576 59.3645 274.367 59.0936L273.447 62.1592C273.414 62.2712 273.407 62.3895 273.427 62.5046C273.447 62.6198 273.494 62.7286 273.564 62.8224C273.634 62.9162 273.724 62.9924 273.829 63.0449C273.933 63.0974 274.048 63.1248 274.165 63.1248H280.165C280.282 63.1248 280.398 63.0974 280.502 63.0449C280.607 62.9924 280.697 62.9162 280.767 62.8224C280.837 62.7286 280.884 62.6198 280.904 62.5046C280.924 62.3895 280.917 62.2712 280.884 62.1592L279.964 59.0936C280.754 59.3645 281.598 59.4427 282.425 59.3217C283.252 59.2007 284.038 58.8841 284.718 58.3981C285.398 57.9121 285.952 57.2708 286.334 56.5276C286.717 55.7843 286.916 54.9606 286.915 54.1248C286.915 47.7348 277.885 43.1467 277.501 42.9545ZM281.665 57.8748C280.759 57.8749 279.884 57.5469 279.201 56.9514C279.078 56.8445 278.924 56.7804 278.762 56.7686C278.6 56.7569 278.438 56.7982 278.301 56.8863C278.165 56.9745 278.06 57.1046 278.004 57.2572C277.948 57.4098 277.943 57.5766 277.989 57.7323L279.158 61.6248H275.173L276.341 57.7323C276.388 57.5766 276.383 57.4098 276.327 57.2572C276.27 57.1046 276.166 56.9745 276.029 56.8863C275.893 56.7982 275.731 56.7569 275.569 56.7686C275.407 56.7804 275.253 56.8445 275.13 56.9514C274.588 57.4246 273.92 57.7316 273.208 57.8357C272.495 57.9398 271.768 57.8367 271.113 57.5387C270.458 57.2406 269.902 56.7602 269.512 56.1549C269.123 55.5495 268.915 54.8448 268.915 54.1248C268.915 51.3236 271.204 48.8233 273.124 47.2192C274.382 46.1802 275.736 45.2612 277.165 44.4742C278.595 45.2612 279.948 46.1802 281.207 47.2192C284.685 50.1255 285.415 52.5789 285.415 54.1248C285.415 55.1194 285.02 56.0732 284.317 56.7765C283.614 57.4798 282.66 57.8748 281.665 57.8748Z" fill="#0F120A"/>
</g>
<g filter="url(#filter3_d_40_6041)">
<rect x="120" y="25" width="54" height="54" rx="8" fill="white" shape-rendering="crispEdges"/>
<path d="M154.5 45.25C153.478 45.2499 152.466 45.4407 151.514 45.8125C150.172 43.0281 147.459 41.6443 147.336 41.5825C147.231 41.5303 147.117 41.5032 147 41.5032C146.883 41.5032 146.769 41.5303 146.664 41.5825C146.54 41.6443 143.828 43.0281 142.486 45.8125C141.534 45.4407 140.522 45.2499 139.5 45.25C139.301 45.25 139.11 45.329 138.97 45.4696C138.829 45.6103 138.75 45.801 138.75 46V53.5C138.75 55.688 139.619 57.7864 141.166 59.3336C142.714 60.8808 144.812 61.75 147 61.75C149.188 61.75 151.286 60.8808 152.834 59.3336C154.381 57.7864 155.25 55.688 155.25 53.5V46C155.25 45.801 155.171 45.6103 155.03 45.4696C154.89 45.329 154.699 45.25 154.5 45.25ZM146.25 60.2087C144.601 60.0222 143.078 59.2354 141.971 57.9982C140.865 56.7609 140.252 55.1598 140.25 53.5V52.0412C141.899 52.2277 143.422 53.0145 144.529 54.2517C145.635 55.489 146.248 57.0901 146.25 58.75V60.2087ZM146.25 54.0118C145.562 53.0315 144.669 52.2127 143.633 51.6122C142.597 51.0117 141.443 50.644 140.25 50.5346V46.7912C141.899 46.9777 143.422 47.7645 144.529 49.0017C145.635 50.239 146.248 51.8401 146.25 53.5V54.0118ZM143.827 46.479C144.691 44.6781 146.302 43.5418 147 43.1134C147.698 43.5428 149.309 44.679 150.172 46.479C148.786 47.3371 147.683 48.5842 147 50.065C146.317 48.584 145.214 47.3368 143.827 46.479ZM153.75 53.5C153.748 55.1598 153.135 56.7609 152.029 57.9982C150.922 59.2354 149.399 60.0222 147.75 60.2087V58.75C147.752 57.0901 148.365 55.489 149.471 54.2517C150.578 53.0145 152.101 52.2277 153.75 52.0412V53.5ZM153.75 50.5346C152.557 50.644 151.403 51.0117 150.367 51.6122C149.331 52.2127 148.438 53.0315 147.75 54.0118V53.5C147.752 51.8401 148.365 50.239 149.471 49.0017C150.578 47.7645 152.101 46.9777 153.75 46.7912V50.5346Z" fill="#0F120A"/>
</g>
<g filter="url(#filter4_d_40_6041)">
<rect x="77" y="89" width="56.9663" height="54" rx="8" fill="#B6D2E8"/>
<path d="M116.545 112.881L111.295 106.881C111.225 106.801 111.138 106.736 111.041 106.692C110.944 106.648 110.839 106.625 110.732 106.625H100.232C100.126 106.625 100.02 106.648 99.9234 106.692C99.8264 106.736 99.74 106.801 99.6698 106.881L94.4198 112.881C94.2973 113.021 94.2311 113.201 94.234 113.387C94.237 113.573 94.3089 113.751 94.4357 113.887L104.936 125.137C105.006 125.212 105.091 125.272 105.185 125.313C105.279 125.354 105.381 125.375 105.484 125.375C105.587 125.375 105.689 125.354 105.783 125.313C105.877 125.272 105.962 125.212 106.033 125.137L116.533 113.887C116.659 113.75 116.73 113.572 116.732 113.386C116.735 113.2 116.668 113.02 116.545 112.881ZM114.329 112.625H110.357L106.982 108.125H110.392L114.329 112.625ZM100.474 114.125L103.299 121.187L96.7082 114.125H100.474ZM108.874 114.125L105.482 122.605L102.09 114.125H108.874ZM102.482 112.625L105.482 108.624L108.482 112.625H102.482ZM110.49 114.125H114.256L107.666 121.187L110.49 114.125ZM100.573 108.125H103.982L100.607 112.625H96.6351L100.573 108.125Z" fill="#0F120A"/>
</g>
<g filter="url(#filter5_d_40_6041)">
<rect x="143" y="89" width="58.6492" height="54" rx="8" fill="#B6D2E8"/>
<path d="M175.999 111.799C175.611 111.798 175.223 111.83 174.84 111.892C174.704 110.485 174.128 109.155 173.195 108.093C172.262 107.03 171.018 106.287 169.64 105.97C169.516 105.942 169.387 105.945 169.265 105.98C169.143 106.015 169.032 106.081 168.942 106.171C168.852 106.26 168.786 106.371 168.751 106.493C168.716 106.616 168.712 106.745 168.741 106.868C168.917 107.638 168.918 108.437 168.744 109.207C168.569 109.977 168.223 110.698 167.731 111.316C167.239 111.934 166.615 112.433 165.904 112.776C165.193 113.119 164.413 113.298 163.624 113.299C163.227 113.299 162.831 113.254 162.444 113.166C162.32 113.137 162.191 113.14 162.068 113.176C161.946 113.211 161.835 113.276 161.745 113.366C161.655 113.456 161.59 113.567 161.555 113.689C161.519 113.812 161.516 113.941 161.544 114.065C161.746 114.933 162.117 115.754 162.637 116.479C163.156 117.204 163.814 117.819 164.572 118.289C164.039 119.015 163.717 119.875 163.643 120.773C163.569 121.67 163.745 122.571 164.152 123.375C164.559 124.179 165.18 124.854 165.948 125.326C166.715 125.798 167.598 126.048 168.499 126.049H175.999C177.889 126.049 179.701 125.298 181.037 123.962C182.373 122.626 183.124 120.813 183.124 118.924C183.124 117.034 182.373 115.222 181.037 113.886C179.701 112.549 177.889 111.799 175.999 111.799ZM163.377 114.799C163.459 114.799 163.541 114.799 163.624 114.799C165.413 114.797 167.129 114.085 168.395 112.819C169.66 111.554 170.372 109.838 170.374 108.049C170.374 107.965 170.374 107.882 170.374 107.798C171.238 108.202 171.974 108.836 172.503 109.629C173.032 110.422 173.333 111.346 173.374 112.298C172.458 112.662 171.627 113.211 170.933 113.911C170.239 114.612 169.698 115.448 169.343 116.367C168.709 116.257 168.059 116.274 167.431 116.417C166.804 116.559 166.211 116.825 165.686 117.198C164.678 116.669 163.868 115.827 163.377 114.799ZM175.999 124.549H168.499C168.037 124.548 167.581 124.452 167.158 124.268C166.734 124.084 166.353 123.814 166.038 123.477C165.723 123.14 165.481 122.741 165.326 122.307C165.171 121.872 165.107 121.41 165.138 120.949C165.168 120.489 165.293 120.039 165.504 119.629C165.716 119.218 166.009 118.856 166.366 118.563C166.723 118.271 167.136 118.054 167.58 117.928C168.024 117.801 168.489 117.767 168.947 117.828C168.912 118.05 168.888 118.277 168.875 118.506C168.869 118.604 168.883 118.703 168.915 118.796C168.948 118.889 168.998 118.975 169.064 119.048C169.13 119.122 169.209 119.182 169.298 119.225C169.387 119.268 169.483 119.293 169.582 119.299C169.68 119.304 169.779 119.291 169.872 119.258C169.965 119.226 170.051 119.175 170.125 119.109C170.198 119.044 170.258 118.964 170.301 118.876C170.344 118.787 170.369 118.69 170.375 118.592C170.396 118.218 170.455 117.847 170.551 117.485C170.551 117.47 170.559 117.455 170.562 117.44C170.838 116.427 171.391 115.511 172.16 114.796C172.929 114.081 173.882 113.595 174.912 113.393C175.942 113.191 177.009 113.281 177.99 113.653C178.972 114.025 179.83 114.664 180.468 115.498C181.106 116.332 181.498 117.327 181.599 118.372C181.701 119.417 181.509 120.47 181.044 121.411C180.579 122.352 179.86 123.145 178.969 123.699C178.077 124.254 177.049 124.548 175.999 124.549Z" fill="#0F120A"/>
</g>
<g filter="url(#filter6_d_40_6041)">
<rect x="211" y="89" width="54" height="54" rx="8" fill="white" shape-rendering="crispEdges"/>
<path d="M247.75 107C247.75 107.199 247.671 107.39 247.53 107.53C247.39 107.671 247.199 107.75 247 107.75H231.25C231.051 107.75 230.86 107.671 230.72 107.53C230.579 107.39 230.5 107.199 230.5 107C230.5 106.801 230.579 106.61 230.72 106.47C230.86 106.329 231.051 106.25 231.25 106.25H247C247.199 106.25 247.39 106.329 247.53 106.47C247.671 106.61 247.75 106.801 247.75 107ZM243.25 110C243.25 109.801 243.171 109.61 243.03 109.47C242.89 109.329 242.699 109.25 242.5 109.25H229C228.801 109.25 228.61 109.329 228.47 109.47C228.329 109.61 228.25 109.801 228.25 110C228.25 110.199 228.329 110.39 228.47 110.53C228.61 110.671 228.801 110.75 229 110.75H242.5C242.699 110.75 242.89 110.671 243.03 110.53C243.171 110.39 243.25 110.199 243.25 110ZM241.75 113C241.75 112.801 241.671 112.61 241.53 112.47C241.39 112.329 241.199 112.25 241 112.25H231.25C231.051 112.25 230.86 112.329 230.72 112.47C230.579 112.61 230.5 112.801 230.5 113C230.5 113.199 230.579 113.39 230.72 113.53C230.86 113.671 231.051 113.75 231.25 113.75H241C241.199 113.75 241.39 113.671 241.53 113.53C241.671 113.39 241.75 113.199 241.75 113ZM243.25 116C243.25 115.801 243.171 115.61 243.03 115.47C242.89 115.329 242.699 115.25 242.5 115.25H234.25C234.051 115.25 233.86 115.329 233.72 115.47C233.579 115.61 233.5 115.801 233.5 116C233.5 116.199 233.579 116.39 233.72 116.53C233.86 116.671 234.051 116.75 234.25 116.75H242.5C242.699 116.75 242.89 116.671 243.03 116.53C243.171 116.39 243.25 116.199 243.25 116ZM243.25 118.25H237.25C237.051 118.25 236.86 118.329 236.72 118.47C236.579 118.61 236.5 118.801 236.5 119C236.5 119.199 236.579 119.39 236.72 119.53C236.86 119.671 237.051 119.75 237.25 119.75H243.25C243.449 119.75 243.64 119.671 243.78 119.53C243.921 119.39 244 119.199 244 119C244 118.801 243.921 118.61 243.78 118.47C243.64 118.329 243.449 118.25 243.25 118.25ZM241 121.25H238C237.801 121.25 237.61 121.329 237.47 121.47C237.329 121.61 237.25 121.801 237.25 122C237.25 122.199 237.329 122.39 237.47 122.53C237.61 122.671 237.801 122.75 238 122.75H241C241.199 122.75 241.39 122.671 241.53 122.53C241.671 122.39 241.75 122.199 241.75 122C241.75 121.801 241.671 121.61 241.53 121.47C241.39 121.329 241.199 121.25 241 121.25ZM238 124.25H236.5C236.301 124.25 236.11 124.329 235.97 124.47C235.829 124.61 235.75 124.801 235.75 125C235.75 125.199 235.829 125.39 235.97 125.53C236.11 125.671 236.301 125.75 236.5 125.75H238C238.199 125.75 238.39 125.671 238.53 125.53C238.671 125.39 238.75 125.199 238.75 125C238.75 124.801 238.671 124.61 238.53 124.47C238.39 124.329 238.199 124.25 238 124.25Z" fill="#0F120A"/>
</g>
</g>
<defs>
<filter id="filter0_d_40_6041" x="33" y="6" width="104.347" height="102" filterUnits="userSpaceOnUse" color-interpolation-filters="sRGB">
<feFlood flood-opacity="0" result="BackgroundImageFix"/>
<feColorMatrix in="SourceAlpha" type="matrix" values="0 0 0 0 0 0 0 0 0 0 0 0 0 0 0 0 0 0 127 0" result="hardAlpha"/>
<feOffset dx="4" dy="4"/>
<feGaussianBlur stdDeviation="12"/>
<feComposite in2="hardAlpha" operator="out"/>
<feColorMatrix type="matrix" values="0 0 0 0 0.884167 0 0 0 0 0.884167 0 0 0 0 0.884167 0 0 0 0.8 0"/>
<feBlend mode="normal" in2="BackgroundImageFix" result="effect1_dropShadow_40_6041"/>
<feBlend mode="normal" in="SourceGraphic" in2="effect1_dropShadow_40_6041" result="shape"/>
</filter>
<filter id="filter1_d_40_6041" x="164" y="6" width="104.979" height="102" filterUnits="userSpaceOnUse" color-interpolation-filters="sRGB">
<feFlood flood-opacity="0" result="BackgroundImageFix"/>
<feColorMatrix in="SourceAlpha" type="matrix" values="0 0 0 0 0 0 0 0 0 0 0 0 0 0 0 0 0 0 127 0" result="hardAlpha"/>
<feOffset dx="4" dy="4"/>
<feGaussianBlur stdDeviation="12"/>
<feComposite in2="hardAlpha" operator="out"/>
<feColorMatrix type="matrix" values="0 0 0 0 0.713726 0 0 0 0 0.823529 0 0 0 0 0.909804 0 0 0 0.8 0"/>
<feBlend mode="normal" in2="BackgroundImageFix" result="effect1_dropShadow_40_6041"/>
<feBlend mode="normal" in="SourceGraphic" in2="effect1_dropShadow_40_6041" result="shape"/>
</filter>
<filter id="filter2_d_40_6041" x="231" y="6" width="100.331" height="102" filterUnits="userSpaceOnUse" color-interpolation-filters="sRGB">
<feFlood flood-opacity="0" result="BackgroundImageFix"/>
<feColorMatrix in="SourceAlpha" type="matrix" values="0 0 0 0 0 0 0 0 0 0 0 0 0 0 0 0 0 0 127 0" result="hardAlpha"/>
<feOffset dx="4" dy="4"/>
<feGaussianBlur stdDeviation="12"/>
<feComposite in2="hardAlpha" operator="out"/>
<feColorMatrix type="matrix" values="0 0 0 0 0.884167 0 0 0 0 0.884167 0 0 0 0 0.884167 0 0 0 0.8 0"/>
<feBlend mode="normal" in2="BackgroundImageFix" result="effect1_dropShadow_40_6041"/>
<feBlend mode="normal" in="SourceGraphic" in2="effect1_dropShadow_40_6041" result="shape"/>
</filter>
<filter id="filter3_d_40_6041" x="100" y="5" width="102" height="102" filterUnits="userSpaceOnUse" color-interpolation-filters="sRGB">
<feFlood flood-opacity="0" result="BackgroundImageFix"/>
<feColorMatrix in="SourceAlpha" type="matrix" values="0 0 0 0 0 0 0 0 0 0 0 0 0 0 0 0 0 0 127 0" result="hardAlpha"/>
<feOffset dx="4" dy="4"/>
<feGaussianBlur stdDeviation="12"/>
<feComposite in2="hardAlpha" operator="out"/>
<feColorMatrix type="matrix" values="0 0 0 0 0.884167 0 0 0 0 0.884167 0 0 0 0 0.884167 0 0 0 0.8 0"/>
<feBlend mode="normal" in2="BackgroundImageFix" result="effect1_dropShadow_40_6041"/>
<feBlend mode="normal" in="SourceGraphic" in2="effect1_dropShadow_40_6041" result="shape"/>
</filter>
<filter id="filter4_d_40_6041" x="57" y="69" width="104.966" height="102" filterUnits="userSpaceOnUse" color-interpolation-filters="sRGB">
<feFlood flood-opacity="0" result="BackgroundImageFix"/>
<feColorMatrix in="SourceAlpha" type="matrix" values="0 0 0 0 0 0 0 0 0 0 0 0 0 0 0 0 0 0 127 0" result="hardAlpha"/>
<feOffset dx="4" dy="4"/>
<feGaussianBlur stdDeviation="12"/>
<feComposite in2="hardAlpha" operator="out"/>
<feColorMatrix type="matrix" values="0 0 0 0 0.713726 0 0 0 0 0.823529 0 0 0 0 0.909804 0 0 0 0.8 0"/>
<feBlend mode="normal" in2="BackgroundImageFix" result="effect1_dropShadow_40_6041"/>
<feBlend mode="normal" in="SourceGraphic" in2="effect1_dropShadow_40_6041" result="shape"/>
</filter>
<filter id="filter5_d_40_6041" x="123" y="69" width="106.649" height="102" filterUnits="userSpaceOnUse" color-interpolation-filters="sRGB">
<feFlood flood-opacity="0" result="BackgroundImageFix"/>
<feColorMatrix in="SourceAlpha" type="matrix" values="0 0 0 0 0 0 0 0 0 0 0 0 0 0 0 0 0 0 127 0" result="hardAlpha"/>
<feOffset dx="4" dy="4"/>
<feGaussianBlur stdDeviation="12"/>
<feComposite in2="hardAlpha" operator="out"/>
<feColorMatrix type="matrix" values="0 0 0 0 0.713726 0 0 0 0 0.823529 0 0 0 0 0.909804 0 0 0 0.8 0"/>
<feBlend mode="normal" in2="BackgroundImageFix" result="effect1_dropShadow_40_6041"/>
<feBlend mode="normal" in="SourceGraphic" in2="effect1_dropShadow_40_6041" result="shape"/>
</filter>
<filter id="filter6_d_40_6041" x="191" y="69" width="102" height="102" filterUnits="userSpaceOnUse" color-interpolation-filters="sRGB">
<feFlood flood-opacity="0" result="BackgroundImageFix"/>
<feColorMatrix in="SourceAlpha" type="matrix" values="0 0 0 0 0 0 0 0 0 0 0 0 0 0 0 0 0 0 127 0" result="hardAlpha"/>
<feOffset dx="4" dy="4"/>
<feGaussianBlur stdDeviation="12"/>
<feComposite in2="hardAlpha" operator="out"/>
<feColorMatrix type="matrix" values="0 0 0 0 0.884167 0 0 0 0 0.884167 0 0 0 0 0.884167 0 0 0 0.8 0"/>
<feBlend mode="normal" in2="BackgroundImageFix" result="effect1_dropShadow_40_6041"/>
<feBlend mode="normal" in="SourceGraphic" in2="effect1_dropShadow_40_6041" result="shape"/>
</filter>
<clipPath id="clip0_40_6041">
<rect width="410" height="208" fill="white"/>
</clipPath>
</defs>
</svg>
