<svg width="173" height="173" viewBox="0 0 173 173" fill="none" xmlns="http://www.w3.org/2000/svg">
<path d="M87.8752 75.3753L50.8259 38.326L39.6267 49.5252L76.4744 86.3729L39.6267 123.221L49.9753 133.569L87.8752 95.6693L125.775 133.569L136.124 123.221L99.276 86.3729L136.124 49.5252L124.924 38.326L87.8752 75.3753Z" fill="#F97316"/>
<path d="M59.096 29.3139L87.8752 0.534729L116.654 29.3139L87.8752 58.0931L59.096 29.3139Z" fill="#F97316"/>
<path d="M115.292 86.5213L144.072 57.7421L172.851 86.5213L144.072 115.3L115.292 86.5213Z" fill="#F97316"/>
<path d="M0.467819 86.5213L29.247 57.7421L58.0262 86.5213L29.247 115.3L0.467819 86.5213Z" fill="#F97316"/>
<path d="M59.096 143.506L68.6725 133.929L88.3285 152.348L97.7593 142.694L88.1019 133.15L87.8752 114.727L116.654 143.506L87.8752 172.285L59.096 143.506Z" fill="#F97316"/>
</svg>
