<svg width="34" height="42" viewBox="0 0 34 42" fill="none" xmlns="http://www.w3.org/2000/svg">
<path d="M17 37.8046C20.4934 36.6059 23.3905 34.4662 25.6915 31.3856C27.9922 28.3046 29.3425 24.8427 29.7425 21.0001H17V4.36957L4.10755 9.18357V18.9001C4.10755 19.2921 4.11588 19.6337 4.13255 19.9251C4.14922 20.2164 4.19088 20.5747 4.25755 21.0001H17V37.8046ZM17 41.0871C16.8094 41.0871 16.6272 41.0684 16.4535 41.0311C16.2795 40.9937 16.1012 40.9377 15.9185 40.8631C11.2452 39.2964 7.54072 36.4522 4.80505 32.3306C2.06905 28.2089 0.70105 23.7154 0.70105 18.8501V9.13357C0.70105 8.41257 0.906383 7.75591 1.31705 7.16357C1.72738 6.57124 2.25972 6.14641 2.91405 5.88907L15.8065 1.07507C16.2132 0.92574 16.611 0.851074 17 0.851074C17.389 0.851074 17.7869 0.92574 18.1935 1.07507L31.086 5.88907C31.7404 6.14641 32.2747 6.57124 32.689 7.16357C33.1037 7.75591 33.311 8.41257 33.311 9.13357V18.8501C33.311 23.7154 31.941 28.2089 29.201 32.3306C26.4614 36.4522 22.7549 39.2964 18.0815 40.8631C17.8989 40.9377 17.7205 40.9937 17.5465 41.0311C17.3729 41.0684 17.1907 41.0871 17 41.0871Z" fill="#090503"/>
</svg>
