<svg width="48" height="48" viewBox="0 0 48 48" fill="none" xmlns="http://www.w3.org/2000/svg">
<path d="M5.13151 38.299C4.21151 38.299 3.41384 37.9611 2.73851 37.2855C2.06284 36.6101 1.72501 35.8125 1.72501 34.8925V13.1075C1.72501 12.1841 2.06284 11.3836 2.73851 10.706C3.41384 10.028 4.21151 9.68896 5.13151 9.68896H26.9165C27.8395 9.68896 28.64 10.028 29.318 10.706C29.996 11.3836 30.335 12.1841 30.335 13.1075V34.8925C30.335 35.8125 29.996 36.6101 29.318 37.2855C28.64 37.9611 27.8395 38.299 26.9165 38.299H5.13151ZM5.13151 34.8925H26.9165V13.1075H5.13151V34.8925ZM36.7305 38.299C36.2758 38.299 35.9017 38.15 35.608 37.852C35.3143 37.5543 35.1675 37.1811 35.1675 36.7325V11.261C35.1675 10.8156 35.3172 10.4423 35.6165 10.141C35.9162 9.83963 36.2913 9.68896 36.742 9.68896C37.1927 9.68896 37.5668 9.83963 37.8645 10.141C38.1622 10.4423 38.311 10.8156 38.311 11.261V36.7325C38.311 37.1811 38.1595 37.5543 37.8565 37.852C37.5535 38.15 37.1782 38.299 36.7305 38.299ZM44.7005 38.299C44.2498 38.299 43.8757 38.15 43.578 37.852C43.2803 37.5543 43.1315 37.1811 43.1315 36.7325V11.261C43.1315 10.8156 43.283 10.4423 43.586 10.141C43.889 9.83963 44.2643 9.68896 44.712 9.68896C45.1667 9.68896 45.5408 9.83963 45.8345 10.141C46.1282 10.4423 46.275 10.8156 46.275 11.261V36.7325C46.275 37.1811 46.1252 37.5543 45.8255 37.852C45.5262 38.15 45.1512 38.299 44.7005 38.299Z" fill="#090503"/>
</svg>
