<svg
  width="32"
  height="32"
  viewBox="0 0 41 41"
  fill="none"
  xmlns="http://www.w3.org/2000/svg"
>
  <path
    d="M20.7054 17.7285L11.929 8.95214L9.2761 11.605L18.0047 20.3337L9.2761 29.0623L11.7275 31.5137L20.7054 22.5358L29.6832 31.5137L32.1346 29.0623L23.406 20.3337L32.1346 11.605L29.4817 8.95214L20.7054 17.7285Z"
    fill="hsl(var(--primary))"
  />
  <path
    d="M13.8881 6.81731L20.7054 -3.8147e-06L27.5227 6.81731L20.7054 13.6346L13.8881 6.81731Z"
    fill="hsl(var(--primary))"
  />
  <path
    d="M27.2001 20.3688L34.0174 13.5515L40.8347 20.3688L34.0174 27.1861L27.2001 20.3688Z"
    fill="hsl(var(--primary))"
  />
  <path
    d="M0 20.3688L6.81732 13.5515L13.6346 20.3688L6.81732 27.1861L0 20.3688Z"
    fill="hsl(var(--primary))"
  />
  <path
    d="M13.8881 33.8675L16.1566 31.599L20.8128 35.962L23.0468 33.6752L20.7591 31.4143L20.7054 27.0502L27.5227 33.8675L20.7054 40.6849L13.8881 33.8675Z"
    fill="hsl(var(--primary))"
  />
</svg>